<svg width="32" height="32" viewBox="0 0 32 32" fill="none" xmlns="http://www.w3.org/2000/svg">
<path d="M26 30H6V3H17.6667L26 11.2653V30Z" fill="#EBE8F7"/>
<path fill-rule="evenodd" clip-rule="evenodd" d="M19.87 2.20334L27.115 9.44833C27.685 10.0183 28 10.7833 28 11.5783V28.3333C28 29.9833 26.65 31.3333 25 31.3333H6.98501C5.33501 31.3333 4.00001 29.9833 4.00001 28.3333L4.01501 4.33334C4.01501 2.68334 5.35001 1.33334 7.00001 1.33334H17.755C18.55 1.33334 19.315 1.64834 19.87 2.20334ZM6.79001 19.9633L9.97001 23.1433C10.555 23.7283 11.515 23.7283 12.085 23.1283L18.445 16.7683C18.5839 16.6295 18.694 16.4646 18.7692 16.2831C18.8444 16.1017 18.883 15.9072 18.883 15.7108C18.883 15.5144 18.8444 15.32 18.7692 15.1385C18.694 14.9571 18.5839 14.7922 18.445 14.6533C18.3061 14.5145 18.1413 14.4043 17.9598 14.3291C17.7784 14.254 17.5839 14.2153 17.3875 14.2153C17.1911 14.2153 16.9966 14.254 16.8152 14.3291C16.6337 14.4043 16.4689 14.5145 16.33 14.6533L11.02 19.9633L8.90501 17.8483C8.76613 17.7095 8.60127 17.5993 8.41982 17.5241C8.23838 17.449 8.0439 17.4103 7.84751 17.4103C7.65111 17.4103 7.45664 17.449 7.27519 17.5241C7.09375 17.5993 6.92888 17.7095 6.79001 17.8483C6.65113 17.9872 6.54097 18.1521 6.46582 18.3335C6.39066 18.515 6.35198 18.7094 6.35198 18.9058C6.35198 19.1022 6.39066 19.2967 6.46582 19.4781C6.54097 19.6596 6.65113 19.8245 6.79001 19.9633ZM17.5 10.3333C17.5 11.1583 18.175 11.8333 19 11.8333H25.75L17.5 3.58334V10.3333ZM23.9494 23.2708C23.9494 24.2046 23.2693 24.9583 22.4205 24.9583C21.5716 24.9583 20.8864 24.2046 20.8864 23.2708C20.8864 22.3371 21.5716 21.5833 22.4205 21.5833C23.2693 21.5833 23.9494 22.3371 23.9494 23.2708ZM19.8585 23.2708C19.8585 24.2046 19.1784 24.9583 18.3295 24.9583C17.4807 24.9583 16.7955 24.2046 16.7955 23.2708C16.7955 22.3371 17.4807 21.5833 18.3295 21.5833C19.1784 21.5833 19.8585 22.3371 19.8585 23.2708ZM14.75 28.0521C14.75 26.7415 17.1381 26.0833 18.3295 26.0833C19.521 26.0833 21.9091 26.7415 21.9091 28.0521V28.8958C21.9091 29.2052 21.679 29.4583 21.3977 29.4583H15.2614C14.9801 29.4583 14.75 29.2052 14.75 28.8958V28.0521ZM21.9244 26.1115C22.1034 26.0946 22.2722 26.0833 22.4205 26.0833C23.6119 26.0833 26 26.7415 26 28.0521V28.8958C26 29.2052 25.7699 29.4583 25.4886 29.4583H22.8398C22.896 29.284 22.9318 29.0927 22.9318 28.8958V28.0521C22.9318 27.2252 22.5278 26.6008 21.9449 26.134C21.9433 26.1322 21.9418 26.13 21.9401 26.1276C21.9362 26.122 21.9316 26.1154 21.9244 26.1115Z" fill="#161617"/>
</svg>
